<svg xmlns="http://www.w3.org/2000/svg" xmlns:xlink="http://www.w3.org/1999/xlink" width="463" height="33" viewBox="0 0 463 33"><defs><path id="a" d="M0 0v24.23h95.217V0z"/></defs><g fill="none" fill-rule="evenodd"><path fill="#EB373B" d="M457.438 12.063s6.127-4.281 4.469-9.131c-1.668-4.049-19.141-1.449-32.145 1.158-7.787 1.596-13.307 2.996-17.049 4.93-5.195 2.689-6.297 5.078-5.22 6.154 1.078 1.074 4.609.149 13.672.606 9.076.453 22.289 1.978 22.289 5.509-.143 2.157-22.274 11.7-63.922 9.124-2.151.771-3.532 1.23-3.532 1.23s28.583 3.516 58.557-2.504c7.988-1.242 16.283-5.086 17.358-8.621 1.076-3.535-3.389-9.066-21.067-9.512 4-1.236 12.141-2.468 16.906-2.168"/><g transform="translate(0 3.832)"><mask id="b" fill="#fff"><use xlink:href="#a"/></mask><path fill="#FFF" d="M66.555.023L95.217 0 77.602 24.171l-32.625.026-6.07-14.885-.307.002-10.854 14.895L0 24.23 17.61.062 50.701.037l4.797 14.746.303-.002z" mask="url(#b)"/></g><path d="M101.139 4.055L173.104 4l-4.143 5.688-20.74.013-13.471 18.483-30.488.025 13.467-18.482L97 9.742zm110.734 6.877h.309l-5.387 7.379-16.457.012 21.535-7.391zm-45.168 7.406L163 23.416l40.1-.031-3.008 4.133 27.75-.024 3.011-4.132 9.602-.008 3.699-5.072-9.597.005L244.963 4l-34.156.028-44.102 14.31zm146.484 9.599L240 27.992c3.109-3.21 8.509-6.229 21.334-8.778l21.378-4.25c2.309-.437 8.071-1.658 10.139-2.605 1.33-.578 1.777-1.188 2.369-2.004.953-1.313.311-2.094-4.881-2.09-5.791.002-7.283 1.428-7.97 2.377l-1.09 1.486-28.664.022c2.101-2.875 5.865-4.91 12.472-6.236 6.604-1.32 16.012-1.905 29.131-1.914 32.321-.026 33.561 3.49 31.323 6.572-2.469 3.386-8.778 5.355-17.59 6.984-8.805 1.631-17.949 3.094-27.196 5.338l36.135-.035-3.701 5.078zm54.309-11.724c-1.859 2.551-4 4.982-4.922 5.564-.9.557-2.556.94-5.674.942-3.113.002-4.2-.38-4.3-.934-.075-.582 1.326-3.01 3.183-5.56 1.856-2.545 4.002-4.98 4.932-5.563.894-.553 2.545-.943 5.66-.945 3.12-.002 4.211.385 4.3.94.077.577-1.318 3.015-3.179 5.556m-43.514.035c-4.068 5.588-4.174 8.02.905 9.85 4.986 1.715 13.972 2.353 27.845 2.344 13.88-.014 23.793-.665 31.303-2.393 7.742-1.836 11.197-4.272 15.264-9.859 4.078-5.582 4.177-8.018-.895-9.844C393.41 4.627 384.424 3.988 370.547 4c-13.87.01-23.793.66-31.303 2.391-7.738 1.836-11.189 4.275-15.26 9.857" fill="#FFF"/></g></svg>