<svg xmlns="http://www.w3.org/2000/svg" width="260" height="24" viewBox="0 0 260 24">
    <g fill="none" fill-rule="evenodd">
        <path fill="#FFF" d="M-381-28h1920v80H-381z" opacity=".95"/>
        <path fill="#EB2D2E" d="M40.22 9l8.365 2.587S40.162 19.844 39 21h9.237c6.912 0 7.9-.88 12.605-5.725 0 0 1.627-1.651 1.627-1.596 0 0 3.543-3.633 4.531-4.624C65.2 9 40.22 9 40.22 9"/>
        <path fill="#000" d="M70.073 5c-.223.267-3.125 3.8-4.073 5h8.927c.223-.267 3.125-3.8 4.073-5h-8.927M13 5H4.073C3.85 5.267.948 8.8 0 10h8.927C9.15 9.667 12.052 6.133 13 5M17.263 12L6 24h26.9l4.1-4.344H24.425zM31.418 12L43 0H17.18L13 4.344h10.96zM127.216 12L121 19h15.784L143 12h-.486zM101.275 7H83.398L81 10h23zM243.86 12.056c0 .283-.057.565-.346.847l-1.446 1.75c-.984 1.13-3.876 2.032-6.48 1.92-2.544-.113-3.817-1.073-2.892-2.202l1.447-1.75c.173-.17.347-.339.578-.508h-16.428c-.116.113-.232.17-.29.282l-.231.226-.058.056-.231.226-.058.057c-.058.056-.116.169-.231.225l-.058.057c-.058.056-.116.17-.174.226l-.058.056c-.058.057-.115.17-.173.226 0 0 0 .056-.058.056-.058.057-.116.17-.174.226 0 0 0 .057-.057.057a.426.426 0 0 0-.116.282v.056c-.058.113-.058.17-.116.283-.289.677-.289 1.355.058 1.975v.057c.058.113.174.226.231.282C218.177 18.831 229.69 19 234.837 19c5.148 0 17.643-.621 20.593-2.258 2.372-1.298 4.339-2.992 4.57-4.742l-16.14.056zM258.944 9.936c0-.064-.057-.064-.057-.127l-.056-.128C257.645 7.383 251.832 7 240.036 7 229.2 7 222.426 8.149 220 10h39c-.056 0-.056-.064-.056-.064M79.586 12L73 19h16.724l4.983-5.25L99.69 19h-.058 16.724L123 12zM158.15 12l-5.883 6.718L152 19h15.615L172 14.089 164.246 12zM189.15 12L183 19h15.615L203 14.089 195.246 12zM122.512 10L125 7h-16.512L106 10zM147.548 7h-16.06L129 10h16.512L148 7h-.057zM217.515 10L220 7h-68.515L149 10h68.458z"/>
    </g>
</svg>
